<?xml version="1.0" encoding="UTF-8"?>
<svg version="1.1" xmlns="http://www.w3.org/2000/svg" width="32" height="32">
<path d="M0 0 C2.97 0 5.94 0 9 0 C9 10.23 9 20.46 9 31 C3.38473948 31 -0.35537687 25.37468328 -4.1875 21.625 C-5.12787109 20.75488281 -6.06824219 19.88476562 -7.03710938 18.98828125 C-13.68782074 12.47743256 -13.68782074 12.47743256 -14.61181641 8.10449219 C-14.6131143 5.65147944 -14.45768953 3.40667604 -14 1 C-9.8880543 1.8231478 -8.15963157 3.52450233 -5.25 6.5625 C-4.05117188 7.80193359 -4.05117188 7.80193359 -2.828125 9.06640625 C-2.22484375 9.70449219 -1.6215625 10.34257812 -1 11 C-0.67 7.37 -0.34 3.74 0 0 Z " fill="#8C6EFD" transform="translate(19,0)"/>
<path d="M0 0 C2.97 0 5.94 0 9 0 C9 10.23 9 20.46 9 31 C3.38473948 31 -0.35537687 25.37468328 -4.1875 21.625 C-5.12787109 20.75488281 -6.06824219 19.88476562 -7.03710938 18.98828125 C-13.68782074 12.47743256 -13.68782074 12.47743256 -14.61181641 8.10449219 C-14.6131143 5.65147944 -14.45768953 3.40667604 -14 1 C-9.8880543 1.8231478 -8.15963157 3.52450233 -5.25 6.5625 C-4.05117188 7.80193359 -4.05117188 7.80193359 -2.828125 9.06640625 C-2.22484375 9.70449219 -1.6215625 10.34257812 -1 11 C-0.67 7.37 -0.34 3.74 0 0 Z M1 1 C0.67 5.29 0.34 9.58 0 14 C-0.85464844 13.13375 -1.70929687 12.2675 -2.58984375 11.375 C-3.70559788 10.24986979 -4.82149043 9.12487684 -5.9375 8 C-6.50146484 7.42765625 -7.06542969 6.8553125 -7.64648438 6.265625 C-9.07878776 4.82474495 -10.53741129 3.41012857 -12 2 C-12.33 2 -12.66 2 -13 2 C-13.55547588 5.17835203 -13.7538792 6.91702755 -13 10 C-10.27345059 13.77116101 -6.96102456 16.83711296 -3.5625 20 C-2.66466797 20.87011719 -1.76683594 21.74023438 -0.84179688 22.63671875 C2.64167797 26.69506228 2.64167797 26.69506228 7 29 C7 19.76 7 10.52 7 1 C5.02 1 3.04 1 1 1 Z " fill="#E7E9FD" transform="translate(19,0)"/>
<path d="M0 0 C2.35978327 1.97451253 4.68430475 3.97488427 7 6 C7.66773438 6.55300781 8.33546875 7.10601562 9.0234375 7.67578125 C13.78384545 11.9018577 13.78384545 11.9018577 14.4375 15.22265625 C14.4375 17.4375 14.4375 17.4375 14 21 C11.64021673 19.02548747 9.31569525 17.02511573 7 15 C5.99839844 14.17048828 5.99839844 14.17048828 4.9765625 13.32421875 C0.21615455 9.0981423 0.21615455 9.0981423 -0.4375 5.77734375 C-0.4375 3.5625 -0.4375 3.5625 0 0 Z " fill="#7ACAE7" transform="translate(6,2)"/>
<path d="M0 0 C5.56818182 0.56818182 5.56818182 0.56818182 7 2 C7.1875 4.9375 7.1875 4.9375 7 8 C5 10 5 10 2 10.3125 C1.01 10.209375 0.02 10.10625 -1 10 C-3 7 -3 7 -2.75 4.4375 C-2 2 -2 2 0 0 Z " fill="#88D7FF" transform="translate(7,22)"/>
<path d="M0 0 C4.22797927 2.81865285 4.22797927 2.81865285 6 5 C6.53855713 7.85646479 6.29847264 10.06501905 6 13 C1.77202073 10.18134715 1.77202073 10.18134715 0 8 C-0.53855713 5.14353521 -0.29847264 2.93498095 0 0 Z " fill="#6A64FC" transform="translate(20,16)"/>
</svg>
